<?xml version="1.0" standalone="no"?>
<!DOCTYPE svg PUBLIC "-//W3C//DTD SVG 20010904//EN"
 "http://www.w3.org/TR/2001/REC-SVG-20010904/DTD/svg10.dtd">
<svg version="1.0" xmlns="http://www.w3.org/2000/svg"
 width="412.000000pt" height="412.000000pt" viewBox="0 0 412.000000 412.000000"
 preserveAspectRatio="xMidYMid meet">
<metadata>
Created by potrace 1.14, written by Peter Selinger 2001-2017
</metadata>
<g transform="translate(0.000000,412.000000) scale(0.100000,-0.100000)"
fill="#000000" stroke="none">
<path d="M1421 4101 c0 -4 20 -22 44 -41 24 -19 44 -39 44 -43 1 -10 -104 47
-130 69 -8 8 -20 14 -25 14 -5 0 -2 -6 7 -13 8 -7 24 -25 34 -41 l19 -29 -24
13 c-14 7 -37 21 -52 31 -38 27 -41 24 -13 -17 35 -51 31 -56 -17 -29 -50 29
-77 34 -33 6 29 -18 74 -61 63 -61 -3 0 -26 9 -52 21 -26 11 -52 18 -59 15 -7
-3 -6 -5 4 -5 21 -1 129 -103 129 -121 0 -8 -17 4 -39 28 -45 49 -150 102
-109 55 19 -22 51 -83 43 -83 -3 0 -17 7 -31 17 l-25 16 26 -59 c37 -81 38
-84 32 -84 -8 0 -91 122 -105 154 -7 16 -14 27 -16 25 -6 -6 43 -160 70 -218
14 -29 24 -55 22 -56 -2 -2 -36 38 -77 89 -81 100 -90 90 -28 -34 43 -87 43
-88 17 -65 -13 11 -33 43 -46 70 -36 78 -29 22 12 -101 19 -58 33 -109 30
-112 -3 -2 -8 1 -10 9 -2 8 -9 28 -15 44 l-11 30 6 -35 c3 -19 23 -70 45 -114
21 -43 39 -83 39 -89 0 -15 -40 23 -61 58 -33 53 -20 4 16 -62 36 -65 36 -75
1 -46 -15 13 -14 10 3 -10 26 -29 17 -37 -15 -12 -10 8 -23 15 -28 15 -5 0 12
-16 37 -35 41 -32 87 -84 87 -99 0 -4 -12 1 -27 10 -24 14 -24 13 5 -12 26
-23 47 -66 106 -219 l74 -190 -22 -23 c-18 -20 -21 -35 -20 -105 1 -94 25
-201 54 -237 11 -14 34 -46 50 -71 29 -45 65 -70 121 -84 24 -6 29 -18 64
-148 21 -78 37 -146 36 -152 -1 -5 -5 -41 -9 -79 l-7 -69 -225 229 -225 230
-120 230 c-117 226 -122 236 -200 492 -62 204 -83 262 -96 262 -9 0 -19 9 -22
20 -3 13 -10 18 -21 14 -12 -4 -16 0 -16 15 0 23 15 29 23 9 3 -7 6 -1 6 14 1
21 -3 25 -19 21 -14 -4 -20 0 -20 12 0 11 5 15 16 11 12 -5 15 1 12 32 -2 29
-7 36 -20 34 -12 -2 -18 4 -18 18 0 18 -6 20 -57 20 -73 0 -88 -9 -80 -48 5
-26 3 -30 -18 -35 -22 -4 -25 -1 -25 29 0 18 6 35 13 37 12 5 -17 11 -40 8 -7
-1 -13 3 -13 9 0 5 5 10 10 10 6 0 10 4 10 10 0 5 -7 7 -15 4 -10 -4 -15 0
-15 11 0 9 4 13 10 10 5 -3 10 1 10 9 0 10 -6 13 -15 10 -9 -4 -15 0 -15 10 0
10 -8 16 -22 16 -21 0 -21 -1 -4 -13 17 -13 17 -14 2 -20 -10 -4 -19 -1 -22 8
-4 8 -16 14 -28 14 -16 -1 -17 -2 -4 -6 22 -5 24 -39 3 -47 -10 -4 -15 1 -15
15 0 26 -16 31 -70 21 -34 -6 -44 -12 -42 -25 2 -10 -4 -17 -13 -17 -8 0 -18
0 -22 -1 -17 -1 -13 20 4 24 16 4 16 5 1 6 -9 0 -19 -3 -22 -8 -3 -5 1 -62 10
-126 8 -65 13 -123 11 -129 -3 -7 -41 -24 -86 -40 -45 -16 -83 -31 -85 -35 -3
-4 24 -103 59 -221 36 -118 65 -220 65 -226 0 -6 -43 -37 -95 -69 l-96 -56
137 -267 c133 -262 136 -267 115 -281 -12 -7 -21 -19 -21 -27 0 -7 149 -205
331 -439 284 -366 330 -430 326 -453 -22 -124 -167 -1079 -167 -1102 0 -20 3
-20 1441 -20 l1441 0 -6 28 c-3 15 -8 59 -11 97 -3 39 -8 95 -10 125 -11 120
-105 807 -128 930 l-12 65 134 350 134 350 210 243 210 243 -34 37 c-18 20
-69 74 -112 118 l-79 82 95 251 c67 178 91 253 83 260 -6 5 -79 43 -163 85
l-152 75 -8 43 c-6 28 -4 76 5 136 7 52 12 95 10 97 -2 1 -16 6 -33 9 -28 6
-30 4 -32 -25 -3 -38 -5 -41 -26 -34 -12 5 -13 13 -6 38 9 31 4 50 -9 31 -12
-17 -67 -9 -66 10 1 9 -4 16 -12 16 -8 0 -14 -9 -14 -20 0 -11 -7 -20 -15 -20
-17 0 -20 21 -4 37 13 13 -15 73 -34 72 -21 -1 -83 -27 -67 -28 9 -1 21 -15
28 -33 13 -36 14 -35 -13 -40 -16 -2 -22 5 -29 35 -9 36 -26 51 -26 23 0 -8
-18 -23 -39 -34 -33 -17 -40 -18 -45 -6 -3 8 0 14 6 14 6 0 9 2 6 5 -3 3 -15
2 -28 -3 -20 -7 -21 -10 -7 -15 21 -8 22 -33 1 -41 -23 -9 -24 -8 -24 19 0 14
-5 25 -11 25 -6 0 -9 -9 -6 -20 3 -14 0 -20 -10 -20 -12 0 -14 -7 -9 -32 4
-18 9 -50 13 -70 4 -28 10 -38 24 -38 11 0 19 -6 19 -14 0 -22 -18 -29 -23 -9
-4 14 -5 13 -6 -4 -1 -16 -8 -23 -28 -25 l-28 -3 -10 -146 -10 -146 -30 8
c-16 5 -32 5 -36 1 -3 -4 -88 -205 -189 -447 -100 -242 -188 -452 -196 -466
-9 -19 -193 -292 -220 -327 -1 -2 -16 6 -33 19 l-30 22 30 43 c16 24 48 90 70
146 23 57 49 112 59 123 10 11 28 56 40 99 11 43 26 88 32 99 5 11 19 62 29
113 17 84 18 97 5 129 -10 23 -23 36 -42 41 -25 6 -26 9 -21 56 4 27 15 64 25
81 11 18 30 63 42 101 18 56 21 79 15 125 -12 80 -13 152 -3 179 6 16 5 21 -3
16 -13 -8 -12 -1 20 121 25 98 26 118 5 90 -15 -18 -16 -12 -9 87 4 76 3 108
-5 113 -9 5 -10 1 -5 -14 3 -11 2 -29 -4 -38 -9 -15 -10 -11 -11 19 0 30 -3
36 -15 31 -9 -3 -15 -2 -14 3 5 29 -2 174 -9 174 -5 0 -6 -26 -4 -59 3 -35 0
-66 -8 -77 -9 -15 -10 -8 -6 41 4 58 4 59 -10 30 -14 -29 -14 -28 -9 32 2 34
7 81 10 105 4 30 3 37 -3 23 -5 -11 -12 -42 -15 -70 -8 -69 -26 -167 -30 -172
-6 -5 -13 27 -22 90 -4 26 -11 49 -15 52 -4 3 -4 -12 1 -33 14 -61 10 -81 -8
-37 -22 55 -75 134 -114 170 l-33 30 23 -35 c38 -61 72 -131 69 -142 -2 -6
-17 10 -32 37 -17 28 -31 43 -35 36 -4 -6 -14 5 -25 28 -17 40 -127 151 -149
151 -7 0 3 -12 21 -26 39 -31 112 -170 112 -214 l0 -30 -41 45 c-40 43 -123
105 -141 105 -5 0 9 -19 31 -42 22 -23 39 -44 37 -45 -1 -2 -27 10 -57 26 -73
40 -245 104 -187 70 10 -5 23 -19 29 -31 9 -17 2 -14 -36 13 -26 19 -54 47
-62 62 -23 45 -25 25 -2 -22 11 -24 18 -45 16 -48 -8 -7 -156 137 -163 159 -3
11 -8 17 -11 15 -2 -3 12 -35 31 -71 45 -82 24 -92 -29 -14 -39 58 -43 59 -20
4 20 -47 18 -47 -129 4 -132 45 -147 49 -91 19 22 -12 45 -26 50 -31 18 -18
-36 1 -127 46 -49 23 -88 40 -87 37z m2107 -400 c3 -8 -1 -12 -9 -9 -7 2 -15
10 -17 17 -3 8 1 12 9 9 7 -2 15 -10 17 -17z m-9 -80 c-7 -23 -16 -41 -21 -41
-10 0 -11 14 0 24 4 4 8 12 8 17 1 5 3 11 4 14 2 5 6 19 9 32 0 3 4 4 7 1 3
-3 0 -24 -7 -47z m-94 30 c3 -6 -3 -15 -14 -20 -14 -8 -20 -7 -24 4 -8 19 26
34 38 16z m-50 -30 c3 -5 1 -13 -5 -16 -15 -9 -43 3 -35 15 8 13 32 13 40 1z
m65 -10 c0 -6 -5 -13 -10 -16 -15 -9 -43 3 -35 15 8 13 45 13 45 1z m50 0 c0
-5 -6 -14 -14 -20 -10 -9 -15 -8 -19 3 -3 8 -1 17 6 20 19 7 27 7 27 -3z m70
-12 c0 -5 -8 -9 -17 -10 -11 0 -13 -3 -5 -6 17 -7 15 -23 -3 -23 -16 0 -18 4
-9 37 6 21 34 22 34 2z m48 3 c2 -7 -2 -10 -12 -6 -9 3 -16 11 -16 16 0 13 23
5 28 -10z m44 -4 c-12 -12 -35 -1 -27 12 3 5 13 6 21 3 10 -4 12 -9 6 -15z
m108 2 c0 -5 -4 -10 -10 -10 -5 0 -10 5 -10 10 0 6 5 10 10 10 6 0 10 -4 10
-10z m-490 -15 c0 -8 -4 -15 -10 -15 -5 0 -10 7 -10 15 0 8 5 15 10 15 6 0 10
-7 10 -15z m60 0 c0 -8 -2 -15 -4 -15 -2 0 -11 -3 -20 -6 -10 -4 -16 -1 -16 9
0 14 13 24 33 26 4 1 7 -6 7 -14z m50 -15 c-21 -14 -30 -12 -30 4 0 18 22 27
35 14 6 -6 5 -12 -5 -18z m218 1 c3 -8 -1 -12 -9 -9 -7 2 -15 10 -17 17 -3 8
1 12 9 9 7 -2 15 -10 17 -17z m52 -2 c0 -5 -7 -9 -15 -9 -8 0 -15 7 -15 15 0
9 6 12 15 9 8 -4 15 -10 15 -15z m-200 -4 c0 -8 -9 -15 -20 -15 -11 0 -20 7
-20 15 0 8 9 15 20 15 11 0 20 -7 20 -15z m50 -3 c0 -5 -3 -12 -7 -16 -5 -4
-8 -13 -8 -18 0 -6 -6 -13 -13 -16 -11 -3 -12 0 -3 17 7 11 9 21 6 21 -4 0 -3
5 0 10 7 12 25 13 25 2z m-220 -17 c0 -8 -4 -15 -10 -15 -5 0 -10 7 -10 15 0
8 5 15 10 15 6 0 10 -7 10 -15z m60 0 c0 -8 -2 -15 -4 -15 -2 0 -11 -3 -20 -6
-10 -4 -16 -1 -16 9 0 14 13 24 33 26 4 1 7 -6 7 -14z m56 -14 c-10 -16 -36
-13 -36 3 0 17 21 27 34 16 4 -5 5 -13 2 -19z m194 8 c0 -5 -7 -9 -15 -9 -8 0
-15 7 -15 15 0 9 6 12 15 9 8 -4 15 -10 15 -15z m98 3 c2 -7 -3 -12 -12 -12
-9 0 -16 7 -16 16 0 17 22 14 28 -4z m-148 -7 c0 -8 -6 -15 -14 -15 -17 0 -28
14 -19 24 12 12 33 6 33 -9z m100 -1 c0 -11 -5 -14 -16 -10 -9 3 -18 6 -20 6
-3 0 -2 5 1 10 10 16 35 12 35 -6z m110 6 c0 -5 -4 -10 -10 -10 -5 0 -10 5
-10 10 0 6 5 10 10 10 6 0 10 -4 10 -10z m-301 -21 c-7 -14 -14 -18 -21 -11
-13 13 -2 32 18 32 12 0 13 -4 3 -21z m-159 -19 c0 -11 -4 -20 -10 -20 -5 0
-10 9 -10 20 0 11 5 20 10 20 6 0 10 -9 10 -20z m58 3 c-4 -22 -38 -30 -38
-10 0 14 13 24 33 26 5 1 7 -7 5 -16z m50 -24 c-20 -13 -28 -11 -28 10 0 23
33 33 38 12 2 -7 -2 -17 -10 -22z m182 26 c0 -8 -6 -15 -14 -15 -17 0 -28 14
-19 24 12 12 33 6 33 -9z m48 -3 c2 -7 -3 -12 -12 -12 -9 0 -16 7 -16 16 0 17
22 14 28 -4z m56 9 c3 -4 3 -11 0 -14 -8 -8 -34 3 -34 14 0 11 27 12 34 0z
m54 -9 c3 -9 -2 -13 -14 -10 -9 1 -19 9 -22 16 -3 9 2 13 14 10 9 -1 19 -9 22
-16z m-3378 -1 c0 -5 3 -16 6 -25 4 -12 0 -16 -15 -16 -16 0 -21 6 -21 25 0
16 6 25 15 25 8 0 15 -4 15 -9z m3170 1 c0 -14 -11 -21 -26 -15 -21 8 -17 23
6 23 11 0 20 -4 20 -8z m-3212 -19 c2 -8 -5 -13 -17 -13 -12 0 -21 6 -21 16 0
18 31 15 38 -3z m3152 2 c0 -17 -2 -18 -25 -9 -13 5 -14 8 -3 15 19 13 28 11
28 -6z m-3005 -5 c3 -5 -3 -10 -14 -10 -12 0 -21 5 -21 10 0 6 6 10 14 10 8 0
18 -4 21 -10z m3199 4 c23 -9 20 -24 -4 -24 -11 0 -20 7 -20 15 0 17 2 18 24
9z m-157 -12 c17 -11 0 -34 -20 -27 -9 4 -13 13 -10 21 6 16 13 17 30 6z m63
-7 c0 -8 -9 -15 -20 -15 -11 0 -20 7 -20 15 0 8 9 15 20 15 11 0 20 -7 20 -15z
m53 0 c1 -5 -6 -11 -15 -13 -11 -2 -18 3 -18 13 0 17 30 18 33 0z m112 5 c4
-6 -5 -10 -19 -10 -14 0 -26 5 -26 10 0 6 9 10 19 10 11 0 23 -4 26 -10z
m-3315 -15 c0 -8 -6 -15 -14 -15 -20 0 -29 17 -14 23 22 9 28 7 28 -8z m2940
1 c0 -19 -31 -30 -41 -14 -4 6 -5 16 -3 20 9 14 44 9 44 -6z m60 -6 c0 -13 -7
-20 -20 -20 -22 0 -28 25 -7 33 22 10 27 7 27 -13z m-3150 -5 c0 -8 -9 -15
-20 -15 -22 0 -27 15 -7 23 21 9 27 7 27 -8z m50 0 c0 -8 -7 -15 -15 -15 -16
0 -20 12 -8 23 11 12 23 8 23 -8z m150 5 c0 -5 -7 -10 -15 -10 -8 0 -15 5 -15
10 0 6 7 10 15 10 8 0 15 -4 15 -10z m2985 0 c3 -5 -1 -10 -10 -10 -9 0 -13 5
-10 10 3 6 8 10 10 10 2 0 7 -4 10 -10z m-3082 -15 c1 -5 -6 -11 -15 -13 -11
-2 -18 3 -18 13 0 17 30 18 33 0z m3347 -11 c0 -33 -33 -30 -38 4 -3 17 2 22
17 22 16 0 21 -6 21 -26z m-3087 -6 c8 -27 1 -38 -24 -38 -14 0 -19 7 -19 30
0 23 5 30 19 30 11 0 21 -9 24 -22z m57 7 c0 -8 -9 -15 -20 -15 -11 0 -20 7
-20 15 0 8 9 15 20 15 11 0 20 -7 20 -15z m2923 8 c3 -5 8 -34 11 -65 l7 -58
-34 0 c-31 0 -35 4 -41 31 -10 50 -7 87 7 92 19 8 45 8 50 0z m-3165 -26 c3
-12 -4 -17 -21 -17 -29 0 -44 27 -19 33 25 7 37 2 40 -16z m62 4 c0 -10 -7
-22 -16 -25 -23 -9 -24 -8 -24 19 0 18 5 25 20 25 13 0 20 -7 20 -19z m3018 2
c2 -9 -8 -13 -30 -13 -18 -1 -44 -7 -58 -15 -41 -23 -70 -19 -70 9 0 22 5 25
48 29 74 6 105 3 110 -10z m-3250 -5 c-5 -15 -48 -24 -48 -10 0 14 12 22 33
22 10 0 17 -5 15 -12z m50 0 c-7 -19 -38 -22 -38 -4 0 10 9 16 21 16 12 0 19
-5 17 -12z m52 -7 c0 -14 -18 -23 -30 -16 -6 4 -8 11 -5 16 8 12 35 12 35 0z
m2880 -16 c0 -18 -5 -25 -20 -25 -20 0 -28 28 -13 43 15 16 33 6 33 -18z m90
-9 c0 -26 -5 -35 -22 -40 -43 -11 -48 -7 -48 34 0 39 1 40 35 40 33 0 35 -2
35 -34z m-2650 9 c0 -9 -7 -18 -16 -22 -18 -7 -39 11 -30 26 11 17 46 13 46
-4z m40 1 c0 -8 -4 -18 -10 -21 -5 -3 -10 -4 -10 -1 0 2 -3 11 -6 20 -4 11 -1
16 10 16 9 0 16 -6 16 -14z m-457 -20 c7 -18 -1 -26 -25 -26 -11 0 -18 7 -18
20 0 23 35 28 43 6z m55 2 c-7 -19 -38 -22 -38 -4 0 10 9 16 21 16 12 0 19 -5
17 -12z m110 -5 c-4 -22 -48 -31 -48 -10 0 19 10 27 32 27 13 0 18 -6 16 -17z
m3082 -2 c0 -20 -18 -31 -51 -31 -14 0 -19 7 -19 25 0 22 4 25 35 25 28 0 35
-4 35 -19z m-3150 -6 c0 -8 -7 -15 -15 -15 -8 0 -15 7 -15 15 0 8 7 15 15 15
8 0 15 -7 15 -15z m140 0 c0 -9 -9 -15 -25 -15 -16 0 -25 6 -25 15 0 9 9 15
25 15 16 0 25 -6 25 -15z m120 1 c0 -16 -27 -29 -41 -20 -19 11 -9 34 16 34
15 0 25 -6 25 -14z m2800 -21 c0 -22 -4 -25 -35 -25 -27 0 -35 4 -35 18 0 25
9 32 42 32 23 0 28 -4 28 -25z m273 19 c3 -4 2 -16 -4 -26 -13 -24 -35 -9 -26
16 7 17 19 21 30 10z m-3133 -19 c0 -9 -9 -15 -25 -15 -16 0 -25 6 -25 15 0 9
9 15 25 15 16 0 25 -6 25 -15z m124 0 c4 -11 -1 -15 -19 -15 -16 0 -25 6 -25
15 0 8 9 15 19 15 10 0 21 -7 25 -15z m-366 -7 c-3 -7 -11 -13 -18 -13 -7 0
-15 6 -17 13 -3 7 4 12 17 12 13 0 20 -5 18 -12z m2922 -13 c0 -18 -5 -25 -20
-25 -15 0 -20 7 -20 25 0 18 5 25 20 25 15 0 20 -7 20 -25z m504 14 c25 -12
25 -13 9 -40 -20 -33 -23 -34 -47 -16 -15 11 -16 17 -5 40 14 31 11 30 43 16z
m-3468 -35 c5 -26 3 -39 -7 -45 -27 -17 -37 -9 -41 32 -4 45 -2 49 23 49 13 0
20 -11 25 -36z m84 21 c0 -8 -4 -15 -10 -15 -5 0 -10 7 -10 15 0 8 5 15 10 15
6 0 10 -7 10 -15z m70 0 c0 -8 -4 -15 -9 -15 -5 0 -16 -3 -25 -6 -12 -4 -16 0
-16 15 0 16 6 21 25 21 16 0 25 -6 25 -15z m70 -10 c0 -9 -9 -15 -25 -15 -16
0 -25 6 -25 15 0 9 9 15 25 15 16 0 25 -6 25 -15z m128 -2 c2 -8 -6 -13 -22
-13 -17 0 -26 5 -26 16 0 19 41 16 48 -3z m2702 -7 c0 -20 -6 -25 -35 -28 -30
-3 -35 -1 -35 17 0 29 8 35 42 35 23 0 28 -4 28 -24z m188 -3 c2 -14 -2 -23
-10 -23 -7 0 -23 -3 -34 -6 -17 -4 -22 0 -26 20 -6 28 4 36 42 33 18 -1 26 -9
28 -24z m-2958 -4 c0 -15 -5 -20 -22 -17 -30 4 -34 26 -6 31 13 2 24 5 26 6 1
0 2 -8 2 -20z m3104 12 c8 -12 -21 -34 -34 -26 -8 5 -8 11 1 21 13 16 25 18
33 5z m-3334 -16 c0 -8 -9 -15 -20 -15 -11 0 -20 7 -20 15 0 8 9 15 20 15 11
0 20 -7 20 -15z m360 0 c0 -9 -9 -15 -25 -15 -16 0 -25 6 -25 15 0 9 9 15 25
15 16 0 25 -6 25 -15z m3160 -10 c51 -26 69 -53 28 -40 -13 3 -38 10 -57 15
-39 10 -56 24 -47 39 10 16 21 14 76 -14z m-427 -4 c6 -26 0 -31 -40 -31 -29
0 -33 3 -33 25 0 22 4 25 34 25 25 0 35 -5 39 -19z m171 -6 c-20 -31 -48 -29
-52 3 -3 19 1 22 33 22 l35 0 -16 -25z m-3171 1 c3 -8 -1 -17 -9 -20 -8 -3
-14 -4 -14 -2 0 3 -3 11 -6 20 -4 10 -1 16 9 16 8 0 17 -6 20 -14z m77 -6 c0
-15 -7 -20 -25 -20 -32 0 -34 27 -2 33 12 2 23 5 25 6 1 0 2 -8 2 -19z m-123
-7 c3 -7 -5 -17 -17 -23 -16 -9 -22 -8 -27 6 -3 9 0 20 8 25 17 10 31 7 36 -8z
m253 2 c0 -9 -9 -15 -25 -15 -16 0 -25 6 -25 15 0 9 9 15 25 15 16 0 25 -6 25
-15z m2608 -7 c-5 -34 -38 -37 -38 -4 0 20 5 26 21 26 15 0 20 -5 17 -22z
m399 -1 c-5 -15 -35 -33 -42 -25 -11 10 18 46 32 41 8 -3 12 -10 10 -16z m68
9 c18 -13 16 -46 -3 -46 -20 0 -45 28 -39 44 8 20 17 20 42 2z m-3137 -19 c3
-12 -4 -17 -22 -17 -27 0 -37 24 -13 33 19 8 32 2 35 -16z m3217 11 c28 -13
30 -19 13 -36 -8 -8 -17 -8 -32 0 -28 14 -27 13 -20 32 7 19 6 19 39 4z
m-3466 -24 c6 -15 10 -28 9 -29 -2 -1 -13 -7 -25 -14 -19 -9 -22 -7 -31 19 -9
24 -8 31 6 40 25 14 28 13 41 -16z m381 11 c0 -8 -4 -15 -9 -15 -5 0 -16 -3
-25 -6 -12 -4 -16 0 -16 15 0 16 6 21 25 21 16 0 25 -6 25 -15z m40 0 c0 -8
-7 -15 -15 -15 -8 0 -15 7 -15 15 0 8 7 15 15 15 8 0 15 -7 15 -15z m2590 -9
c0 -20 -6 -25 -35 -28 -33 -4 -35 -2 -35 24 0 25 3 28 35 28 30 0 35 -3 35
-24z m193 2 c8 -27 7 -28 -37 -35 -35 -5 -36 -5 -36 26 0 29 3 31 34 31 26 0
35 -5 39 -22z m-3087 -25 c-7 -17 -8 -17 -17 0 -12 21 -2 44 13 29 6 -6 8 -19
4 -29z m3442 -1 c-4 -21 -21 -25 -41 -9 -11 7 -16 19 -12 29 6 14 11 15 31 6
14 -7 23 -18 22 -26z m90 13 c7 -6 -39 -95 -48 -95 -6 0 -20 5 -31 10 -18 10
-18 12 6 61 24 46 27 49 48 38 12 -7 23 -13 25 -14z m-538 -21 c0 -21 -4 -24
-40 -24 -36 0 -40 3 -40 24 0 20 6 25 33 28 42 5 47 2 47 -28z m-3171 -6 c13
-35 13 -33 -16 -42 -19 -6 -25 -2 -33 20 -13 34 -6 54 19 54 12 0 23 -11 30
-32z m137 20 c4 -6 -1 -17 -12 -25 -16 -12 -20 -11 -31 4 -10 13 -10 18 0 25
17 11 35 10 43 -4z m104 -2 c0 -23 -29 -27 -40 -6 -9 17 -7 20 15 20 15 0 25
-6 25 -14z m134 5 c3 -5 -1 -12 -10 -15 -24 -9 -31 -7 -38 9 -4 11 1 15 19 15
13 0 26 -4 29 -9z m146 0 c0 -5 3 -16 6 -24 3 -8 -2 -17 -11 -21 -19 -7 -39
35 -21 46 15 10 26 10 26 -1z m1715 -1 c13 0 37 -11 53 -25 25 -21 31 -36 41
-102 15 -97 17 -177 6 -269 l-8 -70 -51 13 c-71 18 -190 21 -210 4 -9 -7 -16
-20 -16 -28 0 -7 -10 -27 -21 -42 -24 -33 -24 -36 11 -206 23 -109 33 -135 52
-135 7 0 6 5 0 13 -11 13 -44 188 -37 195 2 2 24 -10 49 -27 24 -17 49 -31 55
-31 5 0 39 30 75 66 45 45 70 80 78 108 l13 41 3 -44 3 -45 24 30 c13 16 26
26 30 22 4 -4 -5 -21 -19 -39 -24 -28 -27 -40 -25 -93 1 -34 -3 -71 -9 -81 -5
-11 -13 -42 -16 -70 -6 -49 -6 -50 9 -20 19 40 19 25 -1 -41 -16 -57 -30 -74
-19 -24 4 17 2 30 -3 30 -5 0 -13 -17 -16 -37 -4 -21 -32 -95 -62 -165 -58
-132 -91 -175 -178 -236 -33 -23 -52 -28 -118 -31 -88 -4 -133 10 -268 83
-100 54 -162 108 -213 186 -23 36 -45 68 -49 71 -4 3 -16 38 -27 79 -20 79
-35 97 -45 55 -15 -61 -93 -54 -134 13 -12 20 -31 48 -42 62 -19 24 -51 161
-49 205 1 11 9 -20 19 -69 11 -53 26 -99 39 -115 12 -14 25 -36 31 -48 10 -24
50 -51 50 -33 0 5 -4 10 -9 10 -6 0 -16 11 -23 24 -64 116 -60 103 -48 177 12
71 25 84 51 52 10 -11 10 -14 2 -9 -9 5 -13 0 -13 -14 0 -15 5 -20 17 -18 30
6 25 32 -12 76 -42 48 -80 56 -95 20 -5 -13 -9 -17 -9 -9 -1 22 30 51 54 51
42 0 104 -59 144 -137 12 -24 27 -43 35 -43 14 0 26 68 26 151 0 66 26 142 66
195 l36 47 -16 51 c-8 28 -18 63 -21 77 -9 38 19 87 53 94 15 4 47 11 72 17
56 13 377 10 403 -4 11 -5 41 -11 67 -12 38 -1 54 4 73 22 15 14 39 24 60 25
19 1 32 6 29 11 -3 5 2 6 12 3 10 -4 28 -7 41 -7z m1085 -3 c23 6 28 -18 7
-35 -17 -15 -32 -2 -34 28 -1 14 0 20 3 14 3 -7 14 -10 24 -7z m98 0 c19 -11
20 -15 9 -31 -11 -15 -17 -16 -40 -5 -30 14 -32 20 -15 37 15 15 17 15 46 -1z
m102 -26 c-1 -24 -18 -31 -43 -20 -30 13 -32 20 -16 36 8 8 18 8 35 1 13 -6
24 -14 24 -17z m-3592 -8 c2 -15 -4 -23 -18 -28 -25 -8 -25 -7 -34 22 -5 16
-2 23 11 26 28 7 38 2 41 -20z m382 17 c0 -5 -4 -10 -9 -10 -5 0 -16 -3 -25
-6 -11 -4 -16 -1 -16 10 0 10 9 16 25 16 14 0 25 -4 25 -10z m158 -12 c-4 -29
-52 -38 -62 -12 -8 20 9 34 42 34 19 0 23 -5 20 -22z m2502 -9 c0 -23 -4 -30
-17 -27 -9 2 -16 6 -15 11 1 4 2 16 2 27 0 11 7 20 15 20 10 0 15 -10 15 -31z
m-2770 -5 c0 -16 -16 -19 -25 -4 -8 13 4 32 16 25 5 -4 9 -13 9 -21z m3373 15
c29 -16 28 -14 21 -33 -7 -19 -24 -21 -48 -3 -11 8 -15 19 -10 30 7 20 9 20
37 6z m217 -8 c0 -3 -5 -13 -10 -21 -12 -19 -33 0 -25 23 6 14 35 13 35 -2z
m-3928 -9 c4 -13 -3 -22 -23 -29 -15 -6 -30 -8 -33 -5 -13 12 -5 33 17 42 32
13 34 12 39 -8z m228 -13 c0 -3 -11 -11 -24 -17 -20 -9 -25 -8 -30 4 -9 23 -8
24 17 33 20 8 36 -1 37 -20z m70 5 c0 -8 -10 -14 -23 -14 -34 0 -41 12 -15 26
25 14 38 10 38 -12z m232 -9 c9 -34 3 -42 -31 -47 -21 -2 -26 3 -33 31 -7 25
-6 36 4 43 25 16 51 4 60 -27z m2678 5 c0 -28 -3 -30 -35 -30 -32 0 -35 2 -35
30 0 28 3 30 35 30 32 0 35 -2 35 -30z m200 25 c0 -17 -35 -55 -50 -55 -24 0
-33 47 -11 53 24 7 61 8 61 2z m115 -19 c11 -8 16 -19 12 -30 -8 -20 -27 -21
-52 -2 -16 12 -17 16 -6 30 16 19 22 20 46 2z m-3077 -38 c12 -46 5 -58 -34
-58 -16 0 -23 9 -31 45 -11 47 -7 53 33 54 17 1 24 -8 32 -41z m2995 36 c10
-10 -12 -44 -28 -44 -18 0 -20 21 -3 38 13 13 22 15 31 6z m185 -33 c-4 -21
-29 -25 -53 -7 -16 11 -17 16 -6 29 10 13 17 14 37 5 14 -7 23 -18 22 -27z
m-2948 20 c0 -5 3 -16 6 -25 4 -12 0 -16 -15 -16 -12 0 -21 4 -21 9 0 5 -3 16
-6 25 -4 12 0 16 15 16 12 0 21 -4 21 -9z m2632 -16 c6 -31 2 -35 -39 -35 -30
0 -33 3 -33 30 0 27 3 30 34 30 28 0 34 -4 38 -25z m-3224 -7 c4 -21 -37 -35
-49 -17 -6 9 -3 18 8 27 21 15 37 11 41 -10z m76 6 c8 -21 6 -23 -24 -26 -16
-2 -25 3 -28 14 -3 14 7 21 39 27 4 0 10 -6 13 -15z m198 -13 c3 -23 0 -31
-16 -35 -36 -10 -44 -7 -50 21 -8 29 5 43 40 43 16 0 23 -7 26 -29z m266 2 c2
-15 -2 -23 -11 -23 -9 0 -22 -3 -30 -6 -20 -7 -34 35 -16 47 24 16 54 6 57
-18z m3082 -7 c-1 -28 -17 -38 -41 -26 -33 17 -32 16 -20 39 10 18 15 19 36 9
14 -6 25 -16 25 -22z m-3690 -1 c0 -7 -13 -18 -29 -23 -25 -9 -30 -8 -34 8 -4
14 2 22 22 28 29 10 41 7 41 -13z m3090 15 c0 -5 -7 -10 -15 -10 -8 0 -15 5
-15 10 0 6 7 10 15 10 8 0 15 -4 15 -10z m-2837 -20 c6 -23 3 -25 -39 -34 -27
-6 -32 -4 -37 14 -4 15 0 24 16 30 36 14 54 11 60 -10z m2760 14 c12 -4 13
-11 4 -35 -12 -30 -22 -35 -45 -21 -9 7 -10 15 -3 35 11 28 18 31 44 21z m477
-29 c0 -25 -27 -37 -52 -24 -33 17 -33 17 -14 38 15 16 22 18 42 9 13 -6 24
-17 24 -23z m270 25 c12 -6 16 -17 13 -30 -6 -24 -5 -23 -38 -8 -24 11 -32 28
-18 41 9 10 21 9 43 -3z m-570 -14 c0 -9 -8 -12 -27 -8 -25 5 -25 6 -8 13 29
11 35 10 35 -5z m390 -17 c0 -18 -13 -39 -24 -39 -6 0 -19 7 -29 14 -15 12
-16 18 -8 35 10 18 15 19 36 9 14 -6 25 -15 25 -19z m-477 10 c20 -5 37 -11
37 -13 0 -14 -34 -96 -39 -96 -8 0 -73 21 -78 25 -5 3 29 95 35 95 4 0 24 -5
45 -11z m237 2 c0 -6 -4 -13 -10 -16 -5 -3 -10 1 -10 9 0 9 5 16 10 16 6 0 10
-4 10 -9z m45 -1 c8 -13 -13 -40 -31 -40 -17 0 -18 22 -2 38 15 15 25 15 33 2z
m-3301 -17 c7 -18 -11 -34 -34 -30 -8 1 -16 10 -18 19 -3 14 8 21 39 27 4 0
10 -7 13 -16z m73 -17 c-4 -9 -16 -16 -27 -16 -25 0 -28 37 -2 43 23 5 36 -8
29 -27z m373 25 c0 -5 3 -16 6 -24 4 -11 -4 -17 -26 -22 -35 -8 -35 -8 -44 22
-6 17 -2 22 16 26 40 8 48 7 48 -2z m157 -35 c-6 -19 -26 -17 -37 5 -10 17 -9
23 1 30 15 9 42 -17 36 -35z m-673 18 c8 -22 9 -21 -23 -32 -24 -8 -31 -7 -35
5 -4 9 -5 17 -4 18 10 7 44 24 49 25 4 0 10 -7 13 -16z m611 -5 c8 -25 -9 -40
-40 -37 -30 4 -33 45 -3 51 13 2 26 5 30 6 4 0 10 -9 13 -20z m3019 10 c21
-10 23 -15 14 -35 -10 -22 -12 -22 -40 -8 -24 12 -27 18 -18 34 13 23 12 23
44 9z m219 5 c9 -10 -12 -46 -24 -39 -14 9 -11 45 4 45 8 0 17 -3 20 -6z
m-587 -30 c74 -21 94 -30 92 -43 -2 -10 -12 -15 -28 -13 -14 1 -50 4 -80 6
-84 6 -84 6 -98 14 -9 7 -10 15 -3 35 6 15 13 27 16 27 3 0 48 -12 101 -26z
m17 19 c-7 -2 -19 -2 -25 0 -7 3 -2 5 12 5 14 0 19 -2 13 -5z m441 -6 c13 -10
16 -20 12 -35 -7 -21 -9 -21 -37 -7 -25 13 -28 19 -19 35 13 24 20 25 44 7z
m-3469 -18 c8 -23 -7 -39 -37 -39 -10 0 -21 -1 -24 -2 -4 -2 -10 7 -15 19 -7
20 -4 24 24 32 45 13 45 13 52 -10z m93 -5 c2 -17 -3 -23 -25 -27 -34 -6 -43
-2 -43 23 0 35 63 39 68 4z m3077 10 c34 -22 22 -34 -20 -21 -27 8 -32 13 -24
24 14 16 15 16 44 -3z m-2982 -15 c4 -15 -1 -22 -19 -30 -34 -12 -41 -12 -48
7 -10 25 -7 32 12 37 36 10 50 6 55 -14z m3072 9 c48 -22 23 -58 -28 -39 -24
10 -26 13 -15 31 15 24 11 23 43 8z m318 -39 c-8 -29 -16 -30 -52 -8 -27 16
-30 22 -21 39 10 18 12 19 44 3 25 -11 32 -20 29 -34z m-3739 25 c7 -19 8 -17
-22 -33 -19 -10 -23 -9 -29 5 -4 11 1 22 12 30 24 18 32 18 39 -2z m2882 2 c8
-21 -14 -56 -35 -56 -28 0 -31 10 -15 41 15 31 41 38 50 15z m-2946 -41 c0 -6
-13 -16 -29 -22 -24 -9 -31 -8 -35 4 -11 27 -6 40 17 50 17 9 25 8 35 -5 6 -9
12 -21 12 -27z m130 25 c0 -11 -2 -20 -4 -20 -2 0 -11 -3 -19 -6 -17 -6 -31
33 -13 40 24 10 36 5 36 -14z m380 -15 c0 -15 -6 -25 -14 -25 -8 0 -21 -3 -29
-6 -10 -3 -18 2 -22 17 -8 24 7 39 43 39 17 0 22 -6 22 -25z m153 3 c7 -24 1
-38 -14 -38 -11 0 -29 41 -22 53 9 15 31 6 36 -15z m2912 10 c34 -15 26 -33
-14 -31 -39 1 -43 5 -35 27 7 19 15 20 49 4z m-2971 -14 c10 -27 7 -32 -25
-39 -34 -8 -34 -8 -43 22 -5 16 -2 23 11 26 35 9 51 7 57 -9z m2819 0 c23 -5
27 -11 23 -28 -3 -12 -10 -46 -17 -76 -6 -30 -15 -59 -19 -63 -8 -9 -90 10
-90 21 0 4 4 23 9 42 6 19 15 54 21 78 9 33 15 42 28 38 9 -3 30 -8 45 -12z
m250 2 c15 -12 16 -18 7 -35 -10 -20 -12 -20 -41 -6 -25 13 -28 19 -19 35 12
23 28 25 53 6z m-3341 -21 c5 -21 1 -26 -26 -33 -26 -7 -32 -5 -39 11 -10 27
1 36 54 46 4 0 9 -10 11 -24z m-92 -9 c0 -23 -21 -36 -62 -36 -28 0 -24 47 5
53 50 10 57 7 57 -17z m190 -18 c0 -11 -8 -19 -20 -19 -11 -1 -26 -2 -32 -3
-7 -1 -13 10 -13 24 0 17 7 26 25 30 27 7 40 -4 40 -32z m2723 31 c39 -11 40
-12 31 -46 -7 -25 -25 -28 -72 -12 -28 10 -30 12 -20 40 11 33 10 33 61 18z
m598 -5 c26 -13 30 -19 24 -42 -9 -37 -11 -38 -50 -19 -32 15 -34 18 -24 47
13 35 11 35 50 14z m-3667 -9 c5 -14 -20 -35 -42 -35 -14 0 -22 38 -8 44 23 9
44 6 50 -9z m56 -16 c0 -10 -6 -19 -14 -19 -19 0 -30 31 -14 41 17 10 28 2 28
-22z m2889 20 c36 -13 35 -10 19 -44 -11 -24 -16 -26 -47 -20 -48 9 -57 19
-43 50 13 28 24 30 71 14z m259 -4 c22 -6 28 -28 16 -58 -4 -12 -12 -13 -44
-3 -50 15 -53 18 -40 50 7 19 15 26 28 22 9 -2 27 -7 40 -11z m-3247 -111 l36
-105 -28 -15 c-15 -8 -30 -14 -33 -14 -6 0 -66 191 -66 209 0 10 30 28 50 30
3 1 21 -47 41 -105z m485 81 c8 -31 7 -33 -31 -37 -26 -3 -30 1 -33 24 -3 26
-2 27 50 37 4 0 10 -10 14 -24z m2393 9 c10 -9 -23 -64 -40 -64 -26 0 -30 13
-18 49 9 26 15 30 33 25 11 -4 23 -8 25 -10z m649 7 c21 -13 11 -56 -13 -56
-15 0 -21 8 -23 33 -3 33 9 41 36 23z m-2939 -47 c1 -6 -13 -14 -31 -18 -36
-7 -33 -8 -42 21 -6 19 -2 23 26 31 33 9 45 0 47 -34z m55 30 c10 -27 7 -44
-9 -44 -16 0 -36 39 -28 53 8 13 31 8 37 -9z m2958 2 c11 -8 15 -20 11 -35 -9
-34 -37 -22 -41 17 -4 34 3 39 30 18z m-3539 -27 c4 -15 -1 -22 -19 -30 -33
-12 -31 -12 -37 12 -4 14 1 23 16 29 32 13 34 12 40 -11z m156 -35 c1 -17 -7
-23 -35 -29 -42 -7 -40 -9 -48 31 -7 30 -5 32 31 41 41 10 51 2 52 -43z m85
40 c10 -26 7 -32 -24 -42 -30 -11 -32 -10 -43 21 -11 29 56 50 67 21z m-194
-25 c0 -10 -4 -19 -9 -19 -10 0 -21 36 -14 44 10 10 23 -5 23 -25z m294 9 c6
-27 1 -33 -36 -42 -28 -6 -29 -6 -32 36 -1 10 24 22 55 27 4 1 9 -9 13 -21z
m2703 -9 c20 -7 21 -11 12 -39 -12 -34 -11 -34 -61 -19 -39 10 -42 17 -32 56
6 24 22 24 81 2z m573 6 c17 -9 30 -18 30 -22 0 -14 -64 -173 -70 -173 -3 0
-19 13 -34 29 -32 33 -33 23 18 144 19 42 17 42 56 22z m-717 -12 c30 -6 29
-5 21 -27 -3 -9 -17 -16 -29 -16 -13 0 -25 -5 -27 -11 -3 -8 -12 -9 -30 -3
-26 9 -26 10 -12 43 11 25 18 32 31 26 10 -3 30 -9 46 -12z m287 -27 c0 -38
-14 -48 -54 -41 -43 9 -49 16 -41 54 6 28 7 28 50 18 36 -8 45 -15 45 -31z
m-2744 9 c8 -31 8 -31 -33 -40 -29 -6 -33 -4 -33 14 0 12 0 24 -1 29 0 6 29
18 53 21 4 1 10 -10 14 -24z m98 -7 c9 -35 8 -36 -25 -43 -34 -8 -34 -8 -43
22 -5 17 -1 23 21 31 39 15 40 14 47 -10z m60 6 c3 -9 6 -23 5 -32 0 -11 -2
-12 -6 -4 -2 6 -11 12 -18 12 -17 0 -27 27 -12 34 20 8 25 7 31 -10z m-581
-13 c3 -13 -3 -22 -21 -30 -28 -13 -27 -14 -36 16 -5 16 -2 23 11 26 34 9 41
7 46 -12z m2759 2 c4 -2 0 -19 -9 -38 -13 -28 -21 -34 -37 -29 -29 9 -29 8
-12 48 14 35 24 38 58 19z m742 9 c9 -15 -6 -52 -21 -52 -10 0 -13 6 -9 16 3
9 6 22 6 30 0 15 16 19 24 6z m-3264 -22 c0 -11 0 -23 0 -27 -1 -15 -54 -23
-62 -10 -15 23 -8 46 15 50 42 8 47 7 47 -13z m-197 -10 c3 -11 2 -20 -3 -20
-4 0 -10 9 -13 20 -3 11 -2 20 3 20 4 0 10 -9 13 -20z m300 -10 c4 -16 -1 -23
-21 -31 -34 -13 -54 -4 -50 23 2 14 12 25 28 29 31 7 36 5 43 -21z m3077 1 c0
-3 -9 -12 -21 -19 -16 -11 -24 -11 -36 -1 -13 11 -12 15 9 30 16 13 26 15 35
7 7 -6 13 -13 13 -17z m-3270 7 c0 -7 3 -24 6 -38 6 -24 5 -24 -14 4 -20 29
-21 46 -1 46 5 0 9 -6 9 -12z m-29 -24 c10 -13 10 -17 -1 -24 -17 -10 -40 5
-40 26 0 19 25 18 41 -2z m323 1 c7 -19 -55 -48 -66 -31 -13 18 -9 24 20 34
37 14 39 14 46 -3z m137 -7 c10 -18 8 -24 -7 -35 -16 -12 -20 -10 -32 12 -7
14 -10 30 -7 35 11 17 34 11 46 -12z m2322 10 c16 -12 15 -15 -6 -42 -20 -25
-26 -27 -45 -17 -22 12 -22 13 -5 41 19 33 31 36 56 18z m90 -4 c15 -3 27 -10
27 -15 0 -14 -22 -10 -60 12 -19 11 -26 17 -15 15 11 -3 32 -8 48 -12z m260 0
c36 -8 34 -18 -7 -43 -33 -21 -66 -20 -66 3 1 33 14 56 29 52 9 -3 28 -8 44
-12z m-3233 -4 c0 -5 -13 -16 -28 -24 -26 -13 -28 -13 -29 4 -2 17 12 26 45
29 6 0 12 -3 12 -9z m2789 1 c11 -7 10 -15 -9 -41 -27 -38 -45 -27 -29 18 12
34 16 37 38 23z m335 -45 c-3 -17 -8 -33 -10 -35 -7 -7 -95 38 -91 47 2 4 7
14 10 23 5 14 12 15 52 6 44 -10 46 -11 39 -41z m-3064 4 c0 -4 -12 -12 -27
-19 -21 -10 -28 -9 -34 1 -13 20 -11 25 13 43 21 14 24 14 35 -2 7 -9 13 -20
13 -23z m450 -11 c0 -6 -71 -42 -75 -37 -8 10 -26 50 -23 53 2 1 17 9 33 18
28 15 31 15 47 -6 10 -12 18 -25 18 -28z m2826 39 c4 -6 -3 -19 -16 -30 -21
-17 -25 -17 -39 -4 -14 14 -13 17 4 31 24 18 41 19 51 3z m111 -17 l21 -27
-32 -27 -33 -26 -27 28 -27 28 33 27 c18 14 35 26 38 25 3 0 15 -13 27 -28z
m-3209 -13 c3 -22 -2 -27 -28 -33 -36 -8 -37 -8 -42 24 -2 19 3 26 22 32 36
10 45 6 48 -23z m102 2 c0 -7 -55 -40 -66 -40 -1 0 -4 8 -6 18 -3 12 6 21 27
28 31 12 45 10 45 -6z m2641 0 l40 -21 -22 -37 c-39 -65 -41 -66 -88 -43 -22
12 -41 24 -41 27 0 13 53 94 61 94 6 0 28 -9 50 -20z m-2837 -31 c-9 -15 -33
-10 -44 10 -7 14 -6 21 3 24 15 5 49 -22 41 -34z m2554 33 c10 -7 9 -16 -3
-46 -13 -31 -19 -36 -38 -30 -32 10 -32 11 -14 49 17 35 31 42 55 27z m572
-17 c11 -13 10 -18 -6 -30 -38 -29 -69 -8 -38 26 21 23 28 24 44 4z m-3281
-24 l21 -29 -25 -16 c-32 -21 -30 -21 -54 16 l-20 33 22 12 c31 17 33 17 56
-16z m421 -13 c11 -23 19 -42 17 -43 -9 -9 -69 -36 -72 -33 -1 2 -12 22 -24
46 l-22 43 33 14 c46 20 45 20 68 -27z m189 15 c10 -21 9 -28 -1 -34 -21 -14
-28 -11 -40 17 -10 21 -9 27 3 35 21 13 25 11 38 -18z m-510 -2 c8 -15 5 -20
-16 -30 -22 -10 -29 -9 -42 3 -14 14 -13 17 4 31 27 20 42 19 54 -4z m2736 5
c18 -13 18 -14 -4 -45 -13 -18 -28 -28 -34 -25 -35 20 -36 26 -15 55 25 33 27
34 53 15z m345 -6 c0 -5 -4 -10 -10 -10 -5 0 -10 5 -10 10 0 6 5 10 10 10 6 0
10 -4 10 -10z m193 -16 c15 -20 16 -28 7 -39 -18 -21 -33 -18 -61 11 -24 25
-24 26 -5 40 27 19 38 17 59 -12z m219 -77 c16 -22 18 -31 9 -40 -10 -9 -19
-3 -42 25 -17 20 -36 35 -43 32 -8 -3 -23 7 -35 22 -20 26 -20 28 -4 46 16 18
18 17 56 -19 21 -21 48 -51 59 -66z m-3054 81 c20 -20 14 -37 -20 -54 -30 -15
-32 -15 -45 2 -19 26 -16 39 10 52 30 14 41 14 55 0z m2632 -38 c96 -48 112
-64 89 -87 -7 -7 -26 -2 -65 19 -30 17 -62 27 -70 24 -14 -5 -94 28 -94 39 0
12 24 55 32 55 5 0 53 -23 108 -50z m-3240 3 l22 -37 -24 -18 c-13 -9 -25 -18
-28 -18 -6 0 -53 81 -48 84 9 8 44 25 50 26 3 0 16 -17 28 -37z m254 22 c7
-20 -23 -33 -34 -14 -5 7 -6 17 -4 21 9 13 32 9 38 -7z m56 5 c-8 -5 -22 -10
-30 -10 -13 0 -13 1 0 10 8 5 22 10 30 10 13 0 13 -1 0 -10z m88 -53 l21 -47
-29 -15 c-41 -21 -44 -20 -68 30 -29 59 -28 63 11 80 37 16 38 15 65 -48z
m2422 56 c0 -5 -9 -19 -20 -33 l-20 -25 11 33 c10 28 29 45 29 25z m464 -9 c9
-24 8 -26 -16 -18 -32 9 -35 14 -18 24 21 13 27 12 34 -6z m-3086 -16 c17 -17
15 -23 -14 -37 -20 -9 -30 -9 -41 1 -13 10 -11 14 9 30 28 21 31 21 46 6z
m3186 -17 c36 -37 19 -50 -35 -26 -37 17 -38 19 -23 37 22 24 25 23 58 -11z
m156 -6 c23 -24 23 -25 5 -45 l-18 -20 -29 27 c-26 25 -27 28 -11 45 21 23 25
23 53 -7z m-3624 -10 c16 -24 16 -27 -2 -40 -27 -20 -41 -18 -55 7 -10 18 -8
24 11 40 28 23 26 23 46 -7z m192 13 c17 -17 15 -24 -14 -43 -24 -16 -26 -16
-40 2 -18 24 -18 28 9 41 29 14 31 14 45 0z m610 -13 c15 -33 16 -32 -8 -38
-15 -4 -24 2 -35 23 -8 15 -11 30 -8 34 14 14 41 4 51 -19z m2030 11 c1 -2 -5
-19 -13 -39 -10 -25 -22 -37 -35 -37 -28 0 -33 16 -18 56 11 31 16 34 38 29
14 -4 26 -8 28 -9z m-2459 -27 c13 -38 10 -44 -29 -57 -28 -10 -31 -9 -45 18
-21 40 -19 47 13 58 43 16 49 14 61 -19z m2691 11 c22 -11 40 -23 40 -26 0 -9
-30 -64 -36 -64 -5 0 -86 40 -92 46 -6 5 32 64 41 64 4 0 26 -9 47 -20z
m-2331 -17 c12 -27 3 -42 -26 -43 -6 0 -18 -2 -25 -5 -9 -4 -19 4 -26 20 -11
24 -10 27 20 40 44 19 43 19 57 -12z m1581 17 c13 -9 13 -11 0 -20 -22 -15
-30 -12 -30 10 0 22 8 25 30 10z m614 4 c21 -8 20 -20 -5 -55 -18 -25 -23 -28
-42 -18 -12 7 -24 13 -26 15 -5 5 39 64 49 64 5 0 15 -3 24 -6z m-2312 -30
c13 -28 5 -38 -40 -50 -27 -8 -28 -7 -37 27 -5 20 -2 28 17 37 36 17 47 14 60
-14z m1574 -1 c-10 -10 -19 5 -10 18 6 11 8 11 12 0 2 -7 1 -15 -2 -18z m1014
11 c25 -13 29 -19 19 -26 -10 -6 -7 -7 9 -3 28 8 30 -13 4 -45 l-18 -22 -42
21 c-47 24 -49 31 -26 66 19 30 14 29 54 9z m-3270 -34 c0 -6 -54 -40 -64 -40
-3 0 -10 9 -16 19 -8 16 -5 22 23 39 29 18 33 18 45 4 6 -9 12 -18 12 -22z
m3640 15 c33 -35 15 -51 -31 -29 -45 22 -44 21 -29 39 18 21 33 19 60 -10z
m-3440 -26 c0 -4 -11 -14 -25 -23 -23 -15 -25 -15 -36 6 -10 18 -8 24 12 39
22 17 25 17 37 2 6 -9 12 -20 12 -24z m134 19 c9 -34 9 -34 -34 -53 -45 -20
-46 -20 -55 16 -6 23 -2 28 32 42 50 21 50 21 57 -5z m3446 -52 l-20 -20 -27
26 c-26 27 -26 28 -8 48 l18 20 29 -27 28 -27 -20 -20z m-3670 19 c0 -6 -12
-18 -26 -25 -22 -12 -27 -12 -34 0 -14 22 -12 27 12 44 23 16 48 6 48 -19z
m810 -21 c0 -10 -21 -24 -36 -24 -2 0 -10 13 -19 30 -14 27 -14 30 3 39 13 8
21 5 34 -12 10 -12 18 -27 18 -33z m2539 10 c7 -6 -21 -64 -31 -64 -17 0 -88
40 -88 51 0 5 7 21 16 34 l16 24 41 -21 c23 -11 44 -22 46 -24z m114 21 l46
-26 -40 -87 c-22 -47 -41 -88 -43 -89 -2 -2 -24 8 -49 23 l-47 26 14 31 c16
37 69 147 72 147 1 0 22 -11 47 -25z m-1236 9 c-3 -3 -12 -4 -19 -1 -8 3 -5 6
6 6 11 1 17 -2 13 -5z m-1747 -30 c6 -14 10 -27 10 -30 0 -4 -72 -36 -75 -32
-23 42 -22 53 9 70 41 23 45 22 56 -8z m260 -31 c0 -20 -14 -15 -40 13 -21 21
-22 27 -10 34 11 7 20 3 32 -13 10 -12 18 -28 18 -34z m3008 -50 c-28 -28 -55
-50 -60 -47 -4 3 -8 18 -8 34 0 15 -5 30 -12 32 -6 2 9 23 33 45 l44 42 28
-27 27 -26 -52 -53z m-3828 58 c0 -6 -62 -43 -64 -39 -1 2 -8 11 -15 20 -11
15 -9 20 21 38 31 19 34 19 46 3 6 -9 12 -19 12 -22z m444 13 c4 -15 6 -28 4
-29 -2 -1 -18 -10 -36 -19 -32 -16 -32 -16 -42 9 -13 35 -14 32 18 49 39 21
49 20 56 -10z m236 13 c0 -6 -13 -25 -29 -40 -30 -28 -30 -28 -41 -6 -13 24
-15 21 25 42 37 20 45 21 45 4z m2358 -2 c54 -29 54 -29 35 -63 -10 -18 -22
-32 -26 -32 -7 0 -87 38 -96 46 -6 5 40 64 50 64 6 0 22 -7 37 -15z m649 -7
c33 -31 28 -41 -9 -22 -42 21 -41 21 -33 33 9 16 16 14 42 -11z m-3493 -10 c4
-16 0 -28 -15 -41 -21 -17 -22 -17 -37 4 -14 20 -13 23 9 40 31 24 35 24 43
-3z m2610 16 c22 -8 20 -25 -6 -60 -14 -18 -30 -28 -40 -26 -22 4 -22 10 -3
56 16 37 22 41 49 30z m100 -7 c18 -13 17 -15 -5 -49 -20 -32 -26 -34 -46 -25
-28 13 -29 21 -2 58 23 33 28 34 53 16z m-2147 -19 c28 -27 29 -39 2 -56 -16
-10 -24 -11 -35 -1 -27 22 -36 49 -23 65 16 19 29 18 56 -8z m2443 2 c44 -23
49 -37 22 -70 l-18 -22 -45 22 c-24 12 -45 24 -47 25 -5 4 33 65 41 65 4 0 26
-9 47 -20z m-3093 -9 c10 -16 8 -22 -13 -36 -20 -13 -28 -14 -40 -4 -20 17
-17 34 9 47 30 15 31 15 44 -7z m231 -7 c12 -24 10 -26 -34 -45 -25 -12 -47
-19 -49 -17 -2 2 -6 15 -10 31 -6 24 -3 29 26 42 47 20 54 19 67 -11z m582
-23 c6 -17 9 -35 5 -40 -12 -20 -33 -11 -45 20 -11 26 -11 32 1 40 21 13 26
11 39 -20z m-895 -2 c4 -11 5 -22 3 -23 -56 -37 -59 -38 -74 -19 -18 24 -18
26 14 45 37 22 49 22 57 -3z m3349 -62 c-9 -17 -18 -33 -19 -35 -5 -6 -95 42
-95 50 0 5 7 22 15 39 l16 29 49 -25 50 -25 -16 -33z m-2781 59 c3 -7 -7 -25
-22 -40 -27 -26 -51 -34 -51 -17 0 5 -3 16 -6 24 -4 10 4 21 23 31 35 19 49
20 56 2z m251 -2 c4 -10 1 -14 -6 -12 -15 5 -23 28 -10 28 5 0 13 -7 16 -16z
m2870 3 c17 -13 17 -15 2 -45 -15 -28 -19 -30 -36 -20 -22 14 -25 30 -10 59
13 22 20 24 44 6z m-3494 -18 c9 -17 8 -23 -7 -35 -16 -12 -20 -11 -36 8 -17
20 -17 21 0 34 24 18 31 17 43 -7z m259 -5 c6 -15 10 -27 9 -28 -2 -1 -20 -9
-40 -18 l-36 -17 -11 31 c-6 17 -10 32 -9 33 55 30 73 30 87 -1z m211 1 l24
-25 -34 -35 c-40 -42 -49 -43 -80 -10 l-24 25 34 35 c40 42 49 43 80 10z
m-550 -6 c13 -23 14 -22 -19 -39 -21 -11 -26 -10 -38 6 -12 17 -11 21 8 37 28
22 36 22 49 -4z m2843 0 c23 -12 43 -23 45 -24 5 -5 -26 -63 -37 -70 -10 -5
-101 34 -101 44 0 10 39 71 45 71 3 0 25 -10 48 -21z m-2614 -20 c10 -30 9
-31 -35 -51 -25 -11 -47 -18 -49 -16 -2 2 -6 15 -10 30 -6 23 -2 29 32 47 49
26 49 26 62 -10z m471 7 c45 -48 -3 -86 -51 -41 -27 27 -28 30 -12 47 22 24
35 23 63 -6z m3104 8 c3 -8 1 -25 -5 -36 -10 -18 -13 -19 -26 -5 -12 12 -13
18 -1 36 15 25 24 27 32 5z m-1101 -6 c16 -12 15 -16 -8 -50 -23 -34 -27 -36
-50 -26 -30 14 -31 22 -4 59 22 32 36 35 62 17z m302 -10 c25 -12 45 -26 45
-30 0 -12 -29 -68 -35 -68 -13 0 -95 45 -95 52 0 12 29 68 35 68 2 0 25 -10
50 -22z m-3086 -15 c12 -25 10 -29 -16 -50 -35 -29 -37 -29 -51 2 -17 37 -15
43 16 59 36 20 37 20 51 -11z m2670 -30 c-38 -55 -47 -50 -20 11 14 33 24 44
35 40 13 -5 10 -14 -15 -51z m-1764 8 c10 -21 12 -32 4 -37 -14 -9 -64 41 -55
55 13 20 35 12 51 -18z m-788 0 c11 -17 9 -23 -16 -40 l-29 -21 -16 25 c-15
23 -15 25 11 39 36 19 36 19 50 -3z m68 -1 c6 -20 0 -40 -13 -40 -12 0 -33 40
-27 50 10 17 33 11 40 -10z m237 -32 c-32 -33 -38 -34 -52 -8 -9 17 -5 22 27
39 49 25 62 7 25 -31z m2846 4 c12 -8 11 -15 -3 -43 -10 -19 -19 -35 -20 -37
-2 -2 -26 9 -53 25 l-50 28 19 38 20 37 37 -20 c20 -10 43 -23 50 -28z m432
39 c0 -5 -7 -14 -15 -21 -16 -14 -18 -10 -9 14 6 17 24 22 24 7z m-2996 -30
l27 -28 -43 -37 -43 -36 -28 32 -28 33 38 32 c21 18 41 33 44 33 3 0 18 -13
33 -29z m-124 -81 c0 -4 -18 -21 -41 -39 l-40 -33 -26 23 c-14 13 -34 36 -44
51 l-20 27 38 35 38 35 48 -47 c26 -25 47 -49 47 -52z m-237 55 c9 -20 17 -38
17 -40 0 -6 -76 -45 -88 -45 -7 0 -32 56 -32 73 0 6 68 46 81 47 3 0 13 -16
22 -35z m521 3 l28 -32 -23 -18 c-22 -18 -23 -18 -51 9 -33 31 -34 41 -10 59
23 18 24 18 56 -18z m2526 12 c45 -23 47 -28 25 -70 l-15 -30 -49 27 -49 27
16 33 c18 39 21 39 72 13z m-527 -11 c23 -12 44 -23 46 -25 1 -1 -7 -21 -19
-43 l-23 -40 -51 26 c-28 14 -52 27 -54 28 -5 5 42 75 51 75 4 0 27 -10 50
-21z m-2777 -96 c67 -127 60 -117 74 -108 8 5 8 10 0 20 -8 10 -4 18 18 34 25
18 32 19 41 7 10 -12 4 -22 -32 -55 -56 -52 -97 -84 -101 -80 -2 2 -32 59 -67
127 l-64 123 25 19 c14 11 30 20 37 20 6 0 37 -48 69 -107z m74 55 c0 -4 -12
-15 -26 -25 -25 -16 -27 -16 -40 2 -19 26 -18 32 14 49 24 13 28 13 40 -1 6
-9 12 -20 12 -25z m2543 31 c12 -7 23 -13 25 -14 4 -4 -49 -85 -55 -85 -4 0
-45 20 -51 25 -4 4 49 85 55 85 2 0 14 -5 26 -11z m320 -5 c58 -30 59 -33 35
-75 l-21 -38 -49 25 c-53 27 -56 33 -31 75 20 34 23 34 66 13z m767 0 c11 -13
10 -19 -8 -36 -17 -18 -24 -19 -36 -9 -14 12 -14 16 2 37 20 28 25 29 42 8z
m-3577 -16 c3 -12 4 -25 1 -30 -7 -11 -33 21 -34 40 0 21 27 13 33 -10z m741
-27 c-7 -7 -34 28 -34 43 1 6 10 0 21 -13 11 -13 17 -27 13 -30z m2753 17 c31
-35 35 -46 23 -68 -15 -29 -31 -25 -63 16 -28 34 -28 36 -11 55 22 24 26 24
51 -3z m-2924 -16 l27 -28 -40 -39 -40 -39 -33 33 -32 32 39 35 c22 19 42 34
46 34 3 0 18 -13 33 -28z m2445 -37 c5 -5 -32 -75 -40 -75 -17 0 -98 45 -98
54 0 6 9 26 20 44 l21 34 47 -28 c26 -15 48 -28 50 -29z m350 38 c18 -17 19
-21 6 -50 -16 -37 -22 -39 -48 -20 -17 12 -17 18 -7 50 14 42 20 44 49 20z
m-3140 -65 l54 -57 -38 -33 c-20 -18 -42 -33 -47 -33 -5 0 -33 26 -61 58 l-50
58 39 34 c22 19 42 33 45 32 3 -1 29 -28 58 -59z m507 32 c29 -30 29 -30 9
-50 -20 -20 -20 -20 -54 16 -34 34 -34 36 -16 50 26 19 28 19 61 -16z m2445
-26 c0 -5 -30 -66 -35 -72 -2 -2 -26 8 -54 23 l-51 25 20 40 20 40 50 -25 c28
-14 50 -28 50 -31z m-3200 27 c14 -26 14 -26 -17 -46 -25 -17 -27 -17 -40 1
-19 26 -16 39 10 52 31 15 35 14 47 -7z m50 -10 c12 -24 13 -31 2 -31 -5 0
-14 11 -20 25 -14 29 2 34 18 6z m2558 -8 c26 -15 48 -28 50 -29 2 -1 -9 -20
-23 -43 l-27 -40 -52 26 c-28 14 -52 27 -54 28 -4 4 49 85 55 85 2 0 25 -12
51 -27z m-2164 -11 l27 -29 -44 -36 -44 -36 -29 30 -28 29 34 35 c19 19 39 35
45 35 6 0 24 -13 39 -28z m3030 -2 l27 -31 -27 -34 c-14 -19 -28 -35 -31 -35
-3 0 -13 10 -22 21 -16 20 -16 25 -2 65 9 24 19 44 22 44 3 0 18 -14 33 -30z
m-706 0 c66 -35 66 -34 48 -66 -30 -57 -29 -57 -82 -28 -27 15 -50 28 -52 30
-4 2 41 84 46 84 1 0 19 -9 40 -20z m-2092 -21 l29 -31 -45 -39 -45 -38 -27
26 c-16 15 -28 30 -28 35 0 8 71 77 81 78 3 0 18 -14 35 -31z m1784 -1 c0 -5
-12 -26 -26 -48 -26 -39 -27 -39 -55 -24 -32 16 -31 18 8 71 21 29 26 31 48
21 14 -6 25 -15 25 -20z m854 1 l55 -30 -16 -37 c-8 -20 -16 -38 -17 -39 -2
-2 -112 53 -124 62 -6 5 32 75 40 75 5 0 33 -14 62 -31z m-2459 -89 c-24 -27
-28 -26 -60 16 -26 34 -26 36 -9 55 18 20 18 19 53 -15 34 -35 34 -36 16 -56z
m2085 55 l50 -25 -20 -40 c-11 -22 -25 -40 -31 -40 -15 0 -87 38 -94 50 -6 9
31 80 41 80 3 0 27 -11 54 -25z m-2821 -23 l30 -39 -40 -39 -40 -39 -34 40
c-19 22 -34 43 -35 46 0 9 69 69 80 69 4 0 22 -17 39 -38z m400 -3 l23 -31
-33 -34 c-18 -19 -37 -34 -43 -34 -14 0 -56 41 -56 56 0 12 68 74 80 74 4 0
17 -14 29 -31z m2581 11 c21 -11 41 -24 44 -29 6 -9 -20 -81 -29 -81 -9 0
-105 50 -105 55 0 13 35 75 42 75 5 0 26 -9 48 -20z m-1664 -182 c43 -37 78
-72 77 -77 -1 -5 47 -35 107 -66 61 -31 110 -62 110 -69 0 -23 -78 -86 -106
-86 -71 0 -113 21 -179 91 -35 38 -71 79 -79 91 -8 13 -26 75 -40 138 -14 63
-28 126 -32 140 -3 14 10 -2 28 -35 24 -41 60 -82 114 -127z m1152 127 c2 -2
-8 -24 -23 -49 l-26 -45 -55 27 c-30 14 -54 30 -54 34 0 5 12 26 26 48 l26 39
52 -26 c28 -14 53 -27 54 -28z m-2218 -19 c0 -10 -72 -76 -82 -76 -3 0 -15 14
-27 31 l-23 31 38 39 38 39 28 -27 c15 -15 28 -32 28 -37z m385 34 l29 -30
-39 -40 c-22 -22 -42 -40 -45 -39 -3 0 -18 16 -34 36 l-30 35 40 34 c21 18 42
33 45 34 3 0 18 -14 34 -30z m2013 -35 c2 -2 -8 -24 -22 -48 l-27 -45 -54 30
c-59 32 -59 31 -17 95 l14 22 51 -26 c29 -14 54 -27 55 -28z m548 -29 c-8 -32
-35 -96 -41 -96 -4 0 -106 54 -123 65 -1 1 9 27 24 58 l25 57 61 -31 c52 -26
59 -33 54 -53z m98 68 c6 -16 -20 -60 -50 -85 -15 -12 -17 -12 -12 1 40 103
50 116 62 84z m-2480 -43 l38 -39 -26 -18 c-27 -17 -27 -17 -61 16 l-35 34 22
23 c12 13 22 23 23 23 0 0 18 -18 39 -39z m1433 24 l22 -15 -30 -45 c-32 -48
-44 -53 -74 -31 -18 13 -17 15 11 60 32 50 39 53 71 31z m-2391 -112 c-27 -24
-51 -43 -54 -42 -4 0 -18 13 -30 30 l-24 29 49 45 48 44 29 -31 29 -32 -47
-43z m223 66 l24 -31 -41 -40 -40 -41 -26 29 c-14 16 -26 33 -26 38 0 9 71 75
80 75 3 0 16 -14 29 -30z m403 4 l28 -27 -37 -38 c-20 -21 -41 -38 -47 -38
-13 0 -56 41 -56 54 0 13 61 76 74 76 5 0 23 -12 38 -27z m2276 0 c26 -15 48
-28 50 -29 8 -5 -39 -84 -50 -84 -17 0 -98 49 -98 60 0 11 40 80 47 80 2 0 25
-12 51 -27z m172 -18 c28 -14 50 -27 50 -30 0 -14 -33 -85 -40 -85 -6 0 -88
42 -108 55 -3 2 42 85 46 85 1 0 25 -11 52 -25z m-2638 -88 l-43 -42 -30 35
-30 35 42 39 41 39 31 -32 32 -31 -43 -43z m433 73 l29 -30 -42 -42 -42 -42
-35 34 -35 34 37 38 c20 21 42 38 48 38 6 0 24 -14 40 -30z m1621 -20 l53 -31
-27 -44 c-15 -25 -30 -45 -35 -45 -12 0 -107 50 -107 56 0 9 52 94 57 94 3 0
30 -14 59 -30z m-1436 -25 l34 -35 -22 -22 -22 -23 -37 37 c-36 36 -37 38 -18
58 10 11 21 20 25 20 3 0 21 -16 40 -35z m1618 8 c26 -15 49 -28 51 -30 7 -5
-43 -93 -53 -93 -8 0 -91 45 -105 56 -4 4 48 94 55 94 3 0 26 -12 52 -27z
m-2579 -15 l25 -31 -50 -43 c-27 -24 -51 -43 -54 -43 -3 0 -16 14 -30 31 l-24
31 49 44 c27 23 52 43 55 42 3 0 16 -14 29 -31z m198 0 c35 -39 34 -45 -11
-82 l-45 -36 -26 34 -26 35 38 35 c21 20 41 36 44 36 3 0 15 -10 26 -22z m419
-9 l29 -31 -44 -39 c-42 -38 -45 -39 -63 -22 -41 37 -42 53 -7 89 18 19 38 34
44 34 6 0 24 -14 41 -31z m1587 10 c12 -7 24 -13 26 -15 4 -3 -58 -104 -65
-104 -14 0 -54 26 -54 35 0 13 57 95 66 95 3 0 15 -5 27 -11z m937 -19 l60
-30 -21 -53 c-12 -28 -65 -163 -118 -299 -53 -136 -99 -248 -103 -248 -5 0 -8
15 -8 34 0 38 -40 81 -86 92 -13 3 -24 9 -24 13 0 16 225 521 232 521 5 0 35
-14 68 -30z m-2708 -17 c15 -15 28 -32 28 -37 0 -6 -19 -26 -41 -45 l-41 -34
-31 31 -31 32 39 40 c21 22 41 40 44 40 3 0 18 -12 33 -27z m430 0 c15 -15 28
-32 28 -37 0 -13 -74 -76 -88 -76 -5 0 -21 15 -35 33 l-26 34 37 36 c20 21 41
37 46 37 6 0 23 -12 38 -27z m1881 1 c29 -15 53 -28 55 -29 6 -5 -42 -95 -51
-95 -6 0 -82 40 -105 56 -4 2 41 94 45 94 2 0 27 -12 56 -26z m186 -20 c25
-15 47 -28 49 -29 3 -3 -35 -84 -43 -93 -2 -2 -28 11 -59 28 l-55 31 21 45
c12 24 26 44 32 44 5 0 30 -12 55 -26z m-2858 -35 l22 -31 -47 -46 -47 -47
-31 34 -31 35 49 43 c26 24 52 43 56 43 3 0 17 -14 29 -31z m989 -4 l34 -35
-22 -22 -22 -22 -40 39 c-37 36 -39 40 -23 57 23 25 34 23 73 -17z m-778 -9
l27 -34 -45 -37 -45 -38 -29 34 -30 34 43 37 c23 21 44 38 47 38 3 0 17 -15
32 -34z m420 0 l27 -33 -38 -37 c-20 -20 -42 -36 -48 -36 -6 0 -23 14 -38 31
l-26 32 37 38 c21 22 43 39 49 39 5 0 22 -15 37 -34z m1616 3 l53 -30 -22 -37
c-41 -68 -41 -68 -103 -33 -31 18 -56 35 -56 37 0 10 61 94 68 94 4 0 31 -14
60 -31z m180 -9 c68 -35 66 -32 37 -89 -14 -29 -29 -51 -33 -49 -31 14 -112
59 -112 62 0 12 53 96 61 96 6 0 26 -9 47 -20z m-1966 -43 c8 -16 3 -26 -28
-58 -21 -21 -41 -39 -44 -39 -3 0 -18 17 -34 37 l-30 37 44 37 c42 36 45 37
63 21 10 -9 23 -25 29 -35z m416 -59 c-24 -21 -45 -38 -49 -38 -3 0 -20 15
-38 34 l-33 34 44 40 43 41 38 -37 38 -37 -43 -37z m422 -37 c25 -24 66 -53
93 -66 l47 -22 -45 -13 c-43 -12 -151 -87 -168 -116 -15 -27 -24 -14 -33 51
-8 48 -7 75 3 107 13 40 11 119 -3 165 -3 10 10 0 28 -22 18 -22 53 -60 78
-84z m770 89 c0 -15 -5 -12 -26 11 -19 22 -19 22 4 10 12 -6 22 -16 22 -21z
m541 -7 c27 -14 49 -30 49 -35 0 -8 -38 -88 -46 -97 -3 -4 -114 58 -114 64 0
14 46 95 53 95 5 0 31 -12 58 -27z m-2526 -28 l37 -45 -48 -44 c-27 -25 -52
-45 -55 -46 -4 0 -23 21 -42 46 l-36 46 47 44 c26 24 50 43 54 44 4 0 23 -20
43 -45z m2765 -20 c0 -13 -45 -95 -53 -95 -7 0 -90 45 -106 57 -5 4 15 49 34
80 l14 21 56 -30 c30 -16 55 -31 55 -33z m-2558 21 l27 -33 -43 -42 -43 -42
-33 37 -33 38 44 38 c24 20 46 37 49 37 3 0 17 -15 32 -33z m420 -78 c-46 -47
-58 -46 -96 6 l-21 28 44 39 45 40 35 -36 36 -35 -43 -42z m373 82 l29 -30
-25 -25 -25 -25 -34 36 -35 35 24 20 c30 25 32 24 66 -11z m788 -22 l17 -53
-32 -90 c-17 -49 -33 -92 -34 -94 -2 -2 -40 20 -86 50 -68 43 -96 55 -152 64
l-70 10 90 51 c49 28 105 54 124 58 19 3 53 17 75 30 22 13 43 25 46 25 3 1
13 -23 22 -51z m87 12 c6 -11 8 -20 6 -20 -3 0 -10 9 -16 20 -6 11 -8 20 -6
20 3 0 10 -9 16 -20z m-1423 -36 l27 -37 -44 -39 -45 -39 -33 38 -34 38 44 37
c24 21 46 38 50 38 4 0 19 -16 35 -36z m440 4 c18 -18 33 -35 33 -40 0 -4 -19
-25 -42 -47 l-43 -40 -38 37 -37 36 42 43 c23 24 44 43 47 43 3 0 20 -14 38
-32z m1379 -19 c30 -17 54 -35 54 -41 0 -14 -33 -68 -42 -68 -13 0 -118 49
-118 55 0 8 44 85 49 85 2 0 28 -14 57 -31z m-163 -3 c19 -15 23 -40 5 -34
-14 5 -43 48 -32 48 5 0 17 -7 27 -14z m-1819 -41 l26 -34 -42 -41 -43 -40
-33 37 -33 38 40 37 c22 21 44 38 49 38 5 0 21 -16 36 -35z m466 -37 c0 -4
-19 -25 -42 -48 l-43 -40 -32 35 c-18 19 -33 39 -33 44 0 5 19 26 42 45 l42
36 33 -32 c18 -17 33 -35 33 -40z m-551 -112 l137 -168 -22 -85 c-13 -47 -25
-87 -27 -89 -3 -3 -280 345 -326 410 -13 18 -11 23 34 63 26 24 52 42 57 41 5
-2 72 -79 147 -172z m2249 141 c28 -15 52 -32 52 -38 0 -8 -37 -88 -45 -97 -5
-5 -125 50 -125 57 0 11 55 111 60 108 3 -1 29 -15 58 -30z m196 -18 l55 -30
-16 -37 c-32 -78 -27 -75 -93 -42 -33 17 -60 33 -60 35 0 10 50 105 55 105 3
0 30 -14 59 -31z m-2108 -16 l28 -36 -43 -39 c-24 -21 -46 -38 -50 -37 -3 0
-19 16 -35 35 l-29 35 39 40 c21 21 43 39 50 39 6 0 24 -17 40 -37z m-168 -56
l32 -33 -46 -44 -45 -45 -29 35 c-16 19 -30 40 -30 45 0 10 69 74 81 75 3 0
19 -15 37 -33z m391 -24 c-28 -13 -54 -23 -57 -23 -3 0 11 18 33 40 37 38 40
39 57 23 18 -17 17 -18 -33 -40z m-141 -13 c25 -33 27 -40 12 -40 -6 0 -31
-10 -56 -21 -42 -20 -47 -21 -62 -5 -15 15 -13 19 23 56 21 22 44 40 50 40 6
0 21 -13 33 -30z m666 -142 c-18 -52 -20 -128 -5 -237 18 -132 7 -171 -62
-209 l-51 -27 -32 -105 -31 -104 -17 57 c-9 31 -23 81 -31 110 -8 28 -19 107
-25 174 -11 117 -10 130 16 258 25 127 37 155 50 121 4 -11 28 -1 97 44 l92
59 6 -52 c3 -31 1 -67 -7 -89z m1341 74 c-3 -3 -115 28 -124 35 -2 1 -1 9 2
17 5 13 16 11 66 -17 33 -17 58 -33 56 -35z m-1000 7 c48 -34 78 -49 86 -43
24 15 50 12 45 -5 -3 -9 -7 -32 -11 -51 -18 -96 -292 -909 -352 -1047 -37 -84
-68 -151 -70 -149 -3 2 -24 55 -47 117 -32 84 -40 115 -30 117 7 2 22 27 32
55 13 33 26 53 38 56 29 5 52 30 60 65 3 17 15 49 25 71 10 22 30 77 43 122
l24 83 -34 52 c-31 50 -33 57 -28 118 3 36 -1 106 -9 155 -13 81 -12 96 3 150
14 51 26 69 81 122 35 35 65 63 67 63 2 0 36 -23 77 -51z m-1169 -4 c15 -20
25 -37 23 -39 -2 -1 -28 -13 -58 -25 l-54 -23 -21 22 -21 21 45 39 c25 22 48
40 52 40 4 0 19 -16 34 -35z m1614 -110 c13 -14 21 -25 18 -25 -2 0 -15 11
-28 25 -13 14 -21 25 -18 25 2 0 15 -11 28 -25z m-1350 -18 c0 -2 -19 -21 -42
-42 l-43 -40 40 43 c36 39 45 47 45 39z m50 -71 c0 -2 -8 -10 -17 -17 -16 -13
-17 -12 -4 4 13 16 21 21 21 13z m386 -736 c-22 -59 -46 -90 -46 -58 0 15 36
113 53 143 23 40 19 -16 -7 -85z m117 7 c-29 -79 -41 -99 -54 -91 -8 4 4 39
45 139 28 67 35 27 9 -48z m-72 -24 c-8 -15 -10 -15 -11 -2 0 17 10 32 18 25
2 -3 -1 -13 -7 -23z m192 -358 c-3 -9 -8 -14 -10 -11 -3 3 -2 9 2 15 9 16 15
13 8 -4z"/>
<path d="M2513 3186 c21 -8 47 -22 58 -32 10 -9 19 -13 19 -7 0 19 -38 44 -76
49 l-39 5 38 -15z"/>
<path d="M1898 3173 c6 -2 18 -2 25 0 6 3 1 5 -13 5 -14 0 -19 -2 -12 -5z"/>
<path d="M1775 3146 c-56 -16 -66 -42 -49 -119 8 -34 16 -62 17 -63 1 -2 2 23
2 55 0 67 21 106 68 126 39 17 17 18 -38 1z"/>
<path d="M2587 3015 c-14 -19 -27 -25 -57 -25 -35 0 -40 -3 -40 -23 0 -27 28
-70 40 -62 5 3 12 0 16 -6 4 -8 3 -9 -4 -5 -18 11 -15 3 22 -59 21 -34 35 -49
35 -39 1 11 4 70 7 132 4 61 5 112 3 112 -2 0 -12 -12 -22 -25z"/>
<path d="M1750 2935 c0 -11 -11 -30 -24 -44 -13 -15 -32 -39 -42 -56 -13 -22
-7 -18 24 15 41 44 61 85 48 97 -3 4 -6 -2 -6 -12z"/>
<path d="M1900 2784 c-19 -7 -42 -16 -50 -19 -9 -4 -22 -15 -28 -26 -18 -28 1
-95 31 -110 12 -7 25 -18 30 -25 8 -14 50 -29 110 -39 23 -4 37 -11 37 -20 0
-21 24 -18 73 8 23 12 53 22 67 22 16 0 26 6 28 18 3 15 1 16 -15 7 -13 -9
-28 -9 -53 -1 l-35 10 45 -2 45 -2 3 39 c2 28 -3 47 -17 67 -12 16 -21 40 -21
53 0 25 -2 26 -62 25 -35 -1 -83 1 -108 4 -26 3 -59 -1 -80 -9z m80 -124 c0
-5 -4 -10 -10 -10 -5 0 -10 5 -10 10 0 6 5 10 10 10 6 0 10 -4 10 -10z m87 -7
c3 -7 -8 -18 -23 -24 -23 -8 -25 -12 -14 -19 25 -16 -46 -12 -85 4 -19 8 -35
17 -35 20 0 3 16 -2 35 -10 50 -21 65 -18 78 16 12 30 36 37 44 13z m-122 -3
c3 -5 1 -10 -4 -10 -6 0 -11 5 -11 10 0 6 2 10 4 10 3 0 8 -4 11 -10z m138
-37 c-7 -2 -19 -2 -25 0 -7 3 -2 5 12 5 14 0 19 -2 13 -5z"/>
<path d="M2270 2729 c-14 -6 -42 -8 -63 -6 -38 5 -38 5 -20 -15 9 -11 17 -32
17 -46 -1 -23 0 -23 3 -4 4 20 10 23 38 21 36 -4 60 11 68 41 6 22 -5 24 -43
9z"/>
<path d="M1498 2564 c-28 -15 -48 -64 -40 -96 2 -9 15 -27 29 -40 l25 -23 -3
42 c-2 23 0 45 4 49 14 14 7 26 -10 19 -15 -5 -16 -4 -5 6 21 22 37 -6 34 -60
-2 -56 17 -83 43 -61 20 17 19 27 -5 58 -14 17 -20 38 -18 62 2 35 -7 60 -20
60 -4 -1 -19 -7 -34 -16z m-4 -110 c3 -8 2 -12 -4 -9 -6 3 -10 10 -10 16 0 14
7 11 14 -7z m67 -36 c-11 -11 -13 -10 -7 0 4 7 2 21 -5 30 -12 15 -11 15 6 0
16 -15 17 -20 6 -30z"/>
<path d="M2114 2355 c-9 -36 1 -53 33 -61 15 -3 43 -13 62 -21 30 -14 33 -18
28 -49 -5 -27 -2 -34 14 -39 38 -12 59 3 59 45 0 29 6 41 25 54 14 9 25 21 25
28 0 33 -75 49 -124 27 -19 -9 -33 -9 -58 2 -18 8 -37 13 -42 11 -5 -2 -6 4
-3 13 4 8 2 15 -3 15 -5 0 -12 -11 -16 -25z"/>
<path d="M2150 2169 c-14 -6 -46 -8 -73 -4 -38 5 -48 3 -45 -7 3 -7 25 -16 51
-20 71 -10 123 -60 86 -83 -26 -17 1 -30 62 -30 35 0 73 -4 83 -9 17 -8 18 -7
11 15 -21 67 -10 91 48 104 40 8 33 23 -10 23 -37 0 -94 6 -158 17 -16 2 -41
0 -55 -6z"/>
<path d="M2940 2409 c0 -5 5 -7 10 -4 6 3 10 8 10 11 0 2 -4 4 -10 4 -5 0 -10
-5 -10 -11z"/>
<path d="M830 2329 c0 -5 5 -7 10 -4 6 3 10 8 10 11 0 2 -4 4 -10 4 -5 0 -10
-5 -10 -11z"/>
<path d="M2797 2203 c-4 -3 -7 -11 -7 -17 0 -6 5 -5 12 2 6 6 9 14 7 17 -3 3
-9 2 -12 -2z"/>
<path d="M2835 1960 c3 -5 11 -10 16 -10 6 0 7 5 4 10 -3 6 -11 10 -16 10 -6
0 -7 -4 -4 -10z"/>
<path d="M1025 1950 c-3 -5 -1 -10 4 -10 6 0 11 5 11 10 0 6 -2 10 -4 10 -3 0
-8 -4 -11 -10z"/>
<path d="M1245 1890 c-3 -5 -2 -10 4 -10 5 0 13 5 16 10 3 6 2 10 -4 10 -5 0
-13 -4 -16 -10z"/>
<path d="M3350 1890 c-8 -5 -10 -10 -5 -10 6 0 17 5 25 10 8 5 11 10 5 10 -5
0 -17 -5 -25 -10z"/>
<path d="M1480 1881 c0 -5 5 -13 10 -16 6 -3 10 -2 10 4 0 5 -4 13 -10 16 -5
3 -10 2 -10 -4z"/>
<path d="M685 1850 c-3 -5 -1 -10 4 -10 6 0 11 5 11 10 0 6 -2 10 -4 10 -3 0
-8 -4 -11 -10z"/>
<path d="M3287 1759 c7 -7 15 -10 18 -7 3 3 -2 9 -12 12 -14 6 -15 5 -6 -5z"/>
<path d="M1580 1781 c0 -6 4 -13 10 -16 6 -3 7 1 4 9 -7 18 -14 21 -14 7z"/>
<path d="M2845 1680 c3 -5 10 -10 16 -10 5 0 9 5 9 10 0 6 -7 10 -16 10 -8 0
-12 -4 -9 -10z"/>
<path d="M3025 1630 c3 -5 8 -10 11 -10 2 0 4 5 4 10 0 6 -5 10 -11 10 -5 0
-7 -4 -4 -10z"/>
<path d="M935 1560 c-3 -5 -1 -10 4 -10 6 0 11 5 11 10 0 6 -2 10 -4 10 -3 0
-8 -4 -11 -10z"/>
<path d="M726 3447 c3 -10 9 -15 12 -12 3 3 0 11 -7 18 -10 9 -11 8 -5 -6z"/>
</g>
</svg>
